PathFileType	4	(X/Y/Z)	3_coords_data.trc
DataRate	CameraRate	NumFrames	NumMarkers	Units	OrigDataRate	OrigDataStartFrame	OrigNumFrames
30.0	30.0	6	21	m	30.0	1	58
Frame#	Time	THUMB_TIP	THUMB_IP	THUMB_MCP	THUMB_CMC	INDEX_TIP	INDEX_DIP	INDEX_PIP	INDEX_MCP	MIDDLE_TIP	MIDDLE_DIP	MIDDLE_PIP	MIDDLE_MCP	RING_TIP	RING_DIP	RING_PIP	RING_MCP	PINKY_TIP	PINKY_DIP	PINKY_PIP	PINKY_MCP	WRIST
X1	Y1	Z1	X2	Y2	Z2	X3	Y3	Z3	X4	Y4	Z4	X5	Y5	Z5	X6	Y6	Z6	X7	Y7	Z7	X8	Y8	Z8	X9	Y9	Z9	X10	Y10	Z10	X11	Y11	Z11	X12	Y12	Z12	X13	Y13	Z13	X14	Y14	Z14	X15	Y15	Z15	X16	Y16	Z16	X17	Y17	Z17	X18	Y18	Z18	X19	Y19	Z19	X20	Y20	Z20	X21	Y21	Z21
0	0.0	-0.09802349853515625	-0.14674299621582032	0.9914039916992188	-0.08682649993896484	-0.12309100341796875	1.0042100219726562	-0.09148220062255859	-0.10040399932861328	1.0289100341796875	-0.09278250122070313	-0.06810209655761719	1.0509000244140625	-0.057846099853515624	-0.08364920043945312	0.9078040161132812	-0.06269290161132812	-0.08175920104980469	0.9322030029296875	-0.06698739624023438	-0.07847859954833984	0.9559970092773438	-0.07621739959716797	-0.07279329681396485	0.9926539916992188	-0.06020169830322265	-0.044468898773193356	0.8976810302734375	-0.06079560089111328	-0.04666009902954102	0.9229080200195312	-0.0668218002319336	-0.04829729843139648	0.9528369750976563	-0.0669572982788086	-0.05074129867553711	0.9850830078125	-0.04689690017700195	0.001986420035362243	0.9231480102539062	-0.05533480072021484	-0.008123100280761719	0.9471630249023437	-0.06522730255126953	-0.01788909912109375	0.97060498046875	-0.077716796875	-0.0316786994934082	1.0018200073242187	-0.04773970031738281	0.029585100173950194	0.966781982421875	-0.056780899047851566	0.017111299514770507	0.9793489990234375	-0.0660343017578125	0.004233359813690185	0.9913809814453125	-0.0777218017578125	-0.017181400299072266	1.0129600219726562	-0.11859600067138672	-0.042020801544189454	1.0688800048828124
1	0.03333333333333333	-0.09783149719238281	-0.14575900268554687	0.9907109985351562	-0.08755400085449219	-0.12327200317382812	1.0045399780273438	-0.0914980010986328	-0.10174299621582031	1.02777001953125	-0.093535400390625	-0.06956410217285157	1.0494200439453125	-0.05892100143432617	-0.08331919860839844	0.9074140014648437	-0.06232690048217773	-0.0813904037475586	0.931322021484375	-0.06760340118408203	-0.07882330322265625	0.9553150024414062	-0.07676200103759766	-0.07328269958496093	0.992208984375	-0.05913079833984375	-0.04421239852905273	0.8984530029296875	-0.06170420074462891	-0.04617269897460938	0.9244080200195313	-0.06709159851074219	-0.04815090179443359	0.9533599853515625	-0.0761332015991211	-0.050426799774169924	0.9894249877929687	-0.04747069931030273	0.001327790021896362	0.9241530151367188	-0.05462670135498047	-0.007377039909362793	0.945510986328125	-0.06442610168457032	-0.01703689956665039	0.9677069702148438	-0.07820249938964843	-0.03126219940185547	0.9989639892578125	-0.04790660095214844	0.02887430000305176	0.9660399780273438	-0.05723469924926758	0.016531700134277343	0.9792429809570312	-0.06612599945068359	0.004578060150146485	0.9908909912109375	-0.07626640319824218	-0.014832099914550782	1.0091500244140625	-0.11602100372314453	-0.04211050033569336	1.06627001953125
2	0.06666666666666667	-0.097722900390625	-0.14588600158691406	0.9906069946289062	-0.0874573974609375	-0.12336299896240234	1.0044299926757811	-0.09145790100097656	-0.10183699798583984	1.0276099853515626	-0.09330390167236328	-0.06976899719238282	1.0490999755859376	-0.058990299224853514	-0.08343219757080078	0.9072659912109375	-0.06243669891357422	-0.08152429962158203	0.9311500244140625	-0.06767189788818359	-0.07891590118408204	0.9551370239257813	-0.07676129913330078	-0.07343250274658203	0.9919990234375	-0.05914009857177734	-0.044345901489257815	0.898281982421875	-0.06177360153198242	-0.046283699035644534	0.9242509765625	-0.0670770034790039	-0.04820230102539062	0.9530989990234375	-0.07612190246582032	-0.050544300079345704	0.98918798828125	-0.047317298889160156	0.001165089964866638	0.9240130004882813	-0.054527099609375	-0.0074753999710083004	0.9453699951171874	-0.06436409759521484	-0.017170299530029298	0.9675430297851563	-0.07800340270996094	-0.03135619926452637	0.9985809936523438	-0.04766910171508789	0.028632499694824218	0.9659450073242187	-0.05703239822387695	0.01632979965209961	0.9791090087890625	-0.06599669647216796	0.004413179874420166	0.9907689819335938	-0.07615670013427735	-0.014913200378417969	1.008969970703125	-0.11588700103759765	-0.042215599060058596	1.0660799560546874
3	0.1	-0.09768299865722656	-0.14593800354003905	0.9904879760742188	-0.08747109985351563	-0.12334500122070312	1.0043300170898437	-0.09153739929199219	-0.10183899688720703	1.0274300537109375	-0.09336840057373047	-0.06981410217285157	1.0489000244140625	-0.05901509857177734	-0.08349849700927735	0.9071190185546875	-0.062477401733398434	-0.08157649993896485	0.9309719848632813	-0.06775	-0.07897489929199218	0.9549730224609375	-0.07689510345458984	-0.07346430206298828	0.9918170166015625	-0.05900859832763672	-0.0443843994140625	0.8981420288085937	-0.06163800048828125	-0.04633200073242188	0.924072021484375	-0.06711979675292969	-0.04827180099487305	0.95302001953125	-0.07620339965820312	-0.05062120056152344	0.9890599975585938	-0.046993499755859376	0.001055070042610168	0.9239439697265625	-0.054319499969482425	-0.007607880115509033	0.9453150024414062	-0.06423179626464844	-0.017282100677490236	0.9674940185546875	-0.07819159698486328	-0.03144610023498535	0.9985850219726562	-0.047383899688720706	0.02851140022277832	0.9658729858398437	-0.056787498474121095	0.016225099563598633	0.9790130004882812	-0.06580670166015624	0.004312880039215088	0.9906740112304687	-0.07610980224609375	-0.015042799949645996	1.0089199829101563	-0.11593099975585938	-0.04213159942626953	1.066010009765625
4	0.13333333333333333	-0.0973458023071289	-0.1457790069580078	0.990291015625	-0.08721019744873047	-0.12318000030517579	1.0041699829101562	-0.09137760162353516	-0.10168199920654297	1.0273699951171875	-0.09333439636230469	-0.06966190338134766	1.0489100341796875	-0.059012901306152346	-0.08330660247802735	0.9070159912109375	-0.062405498504638675	-0.08139309692382812	0.9309340209960938	-0.06768099975585938	-0.07877580261230469	0.9549429931640625	-0.07684690093994141	-0.07328980255126953	0.9918170166015625	-0.058895099639892576	-0.04420339965820313	0.8981209716796875	-0.061558300018310544	-0.04615010070800781	0.9240549926757813	-0.0670384979248047	-0.048144298553466795	0.9529970092773438	-0.07619850158691406	-0.05041690063476562	0.9890770263671875	-0.046970298767089844	0.0011801400184631341	0.92389697265625	-0.05433010101318359	-0.007464369773864746	0.9452069702148438	-0.06431259918212891	-0.01714069938659668	0.96743798828125	-0.07808149719238282	-0.03126099967956543	0.9984609985351562	-0.04740639877319336	0.028679100036621094	0.9658690185546875	-0.05683789825439453	0.016374200820922852	0.979073974609375	-0.06586419677734374	0.004484940052032471	0.990697021484375	-0.07626210021972656	-0.014941499710083008	1.0089199829101563	-0.11593699645996093	-0.04213520050048828	1.066
5	0.16666666666666666	-0.09695059967041016	-0.14544700622558593	0.9901680297851563	-0.08691390228271484	-0.12279499816894532	1.0041099853515625	-0.09117720031738281	-0.10147299957275391	1.0273199462890625	-0.093279296875	-0.06934729766845703	1.0488800048828124	-0.05880139923095703	-0.08290950012207031	0.9069550170898437	-0.06223089981079102	-0.08101370239257813	0.9309240112304688	-0.06754299926757812	-0.07844860076904298	0.9549439697265625	-0.07685099792480468	-0.07297769927978516	0.991791015625	-0.05870059967041016	-0.04388650131225586	0.8981309814453124	-0.06145399856567383	-0.04583219909667969	0.9240549926757813	-0.06698110198974609	-0.047830299377441404	0.9529580078125	-0.07634390258789063	-0.050112998962402344	0.9890419921875	-0.04683539962768555	0.001486989974975586	0.923906982421875	-0.054260200500488284	-0.007172019958496094	0.9452529907226562	-0.06423829650878907	-0.016831300735473634	0.9674219970703125	-0.07804139709472656	-0.030965999603271486	0.9984299926757813	-0.0473390007019043	0.028951200485229492	0.9659219970703125	-0.056789901733398436	0.01663759994506836	0.9790570068359375	-0.06581310272216796	0.004722280025482178	0.9906939697265625	-0.07609030151367188	-0.014565899848937988	1.009	-0.11591400146484375	-0.04185070037841797	1.0658900146484376
